<mxfile host="app.diagrams.net" agent="Mozilla/5.0 (Windows NT 10.0; Win64; x64; rv:144.0) Gecko/20100101 Firefox/144.0" version="28.2.8">
  <diagram name="Page-1" id="EYg3MqegUCzYYS_CXkTB">
    <mxGraphModel dx="953" dy="449" grid="1" gridSize="10" guides="1" tooltips="1" connect="1" arrows="1" fold="1" page="1" pageScale="1" pageWidth="827" pageHeight="1169" math="0" shadow="0">
      <root>
        <mxCell id="0" />
        <mxCell id="1" parent="0" />
        <mxCell id="DrM0CufQLxGyzozMeJKn-367" value="PC" style="verticalAlign=top;align=left;spacingTop=8;spacingLeft=2;spacingRight=12;shape=cube;size=10;direction=south;fontStyle=4;html=1;whiteSpace=wrap;strokeColor=#0F8B8D;fontColor=#143642;fillColor=#FAE5C7;" vertex="1" parent="1">
          <mxGeometry x="40" y="140" width="300" height="120" as="geometry" />
        </mxCell>
        <mxCell id="DrM0CufQLxGyzozMeJKn-368" value="Browser" style="shape=module;align=left;spacingLeft=20;align=center;verticalAlign=top;whiteSpace=wrap;html=1;strokeColor=#0F8B8D;fontColor=#143642;fillColor=#FAE5C7;" vertex="1" parent="1">
          <mxGeometry x="50" y="175" width="280" height="75" as="geometry" />
        </mxCell>
        <mxCell id="DrM0CufQLxGyzozMeJKn-369" value="&amp;lt;&amp;lt;static&amp;gt;&amp;gt;&lt;div&gt;CSS&lt;/div&gt;" style="shape=module;align=left;spacingLeft=20;align=center;verticalAlign=top;whiteSpace=wrap;html=1;strokeColor=#0F8B8D;fontColor=#143642;fillColor=#FAE5C7;" vertex="1" parent="1">
          <mxGeometry x="80" y="200" width="100" height="50" as="geometry" />
        </mxCell>
        <mxCell id="DrM0CufQLxGyzozMeJKn-370" value="&amp;lt;&amp;lt;static&amp;gt;&amp;gt;&lt;div&gt;JS&lt;/div&gt;" style="shape=module;align=left;spacingLeft=20;align=center;verticalAlign=top;whiteSpace=wrap;html=1;strokeColor=#0F8B8D;fontColor=#143642;fillColor=#FAE5C7;" vertex="1" parent="1">
          <mxGeometry x="200" y="200" width="100" height="50" as="geometry" />
        </mxCell>
        <mxCell id="DrM0CufQLxGyzozMeJKn-371" value="reverse proxy: nginx x.y" style="verticalAlign=top;align=left;spacingTop=8;spacingLeft=2;spacingRight=12;shape=cube;size=10;direction=south;fontStyle=4;html=1;whiteSpace=wrap;strokeColor=#0F8B8D;fontColor=#143642;fillColor=#FAE5C7;" vertex="1" parent="1">
          <mxGeometry x="460" y="155" width="160" height="70" as="geometry" />
        </mxCell>
        <mxCell id="DrM0CufQLxGyzozMeJKn-372" value="moncompte.dawan.fr" style="verticalAlign=top;align=left;spacingTop=8;spacingLeft=2;spacingRight=12;shape=cube;size=10;direction=south;fontStyle=4;html=1;whiteSpace=wrap;strokeColor=#0F8B8D;fontColor=#143642;fillColor=#FAE5C7;" vertex="1" parent="1">
          <mxGeometry x="750" y="105" width="300" height="145" as="geometry" />
        </mxCell>
        <mxCell id="DrM0CufQLxGyzozMeJKn-373" value="&lt;div&gt;HoÃ¹e&lt;/div&gt;" style="shape=module;align=left;spacingLeft=20;align=center;verticalAlign=top;whiteSpace=wrap;html=1;strokeColor=#0F8B8D;fontColor=#143642;fillColor=#FAE5C7;" vertex="1" parent="1">
          <mxGeometry x="830" y="140" width="100" height="50" as="geometry" />
        </mxCell>
        <mxCell id="DrM0CufQLxGyzozMeJKn-374" value="&lt;div&gt;Presence&lt;/div&gt;" style="shape=module;align=left;spacingLeft=20;align=center;verticalAlign=top;whiteSpace=wrap;html=1;strokeColor=#0F8B8D;fontColor=#143642;fillColor=#FAE5C7;" vertex="1" parent="1">
          <mxGeometry x="870" y="165" width="100" height="50" as="geometry" />
        </mxCell>
        <mxCell id="DrM0CufQLxGyzozMeJKn-375" value="Evall" style="shape=module;align=left;spacingLeft=20;align=center;verticalAlign=top;whiteSpace=wrap;html=1;strokeColor=#0F8B8D;fontColor=#143642;fillColor=#FAE5C7;" vertex="1" parent="1">
          <mxGeometry x="910" y="190" width="100" height="50" as="geometry" />
        </mxCell>
        <mxCell id="DrM0CufQLxGyzozMeJKn-376" value="POSTGRESQL" style="strokeWidth=2;html=1;shape=mxgraph.flowchart.database;whiteSpace=wrap;strokeColor=#0F8B8D;fontColor=#143642;fillColor=#FAE5C7;" vertex="1" parent="1">
          <mxGeometry x="1140" y="105" width="150" height="60" as="geometry" />
        </mxCell>
        <mxCell id="DrM0CufQLxGyzozMeJKn-377" value="NFS" style="strokeWidth=2;html=1;shape=mxgraph.flowchart.database;whiteSpace=wrap;strokeColor=#0F8B8D;fontColor=#143642;fillColor=#FAE5C7;" vertex="1" parent="1">
          <mxGeometry x="1140" y="215" width="150" height="60" as="geometry" />
        </mxCell>
        <mxCell id="DrM0CufQLxGyzozMeJKn-378" value="" style="html=1;rounded=0;strokeColor=#0F8B8D;fontColor=#143642;fillColor=#FAE5C7;" vertex="1" parent="1">
          <mxGeometry x="430" y="185" width="30" height="30" as="geometry" />
        </mxCell>
        <mxCell id="DrM0CufQLxGyzozMeJKn-379" value="" style="endArrow=none;html=1;rounded=0;align=center;verticalAlign=top;endFill=0;labelBackgroundColor=none;endSize=2;strokeColor=#A8201A;fontColor=#143642;fillColor=#FAE5C7;" edge="1" source="DrM0CufQLxGyzozMeJKn-378" target="DrM0CufQLxGyzozMeJKn-380" parent="1">
          <mxGeometry relative="1" as="geometry" />
        </mxCell>
        <mxCell id="DrM0CufQLxGyzozMeJKn-380" value="" style="ellipse;html=1;fontSize=11;align=center;fillColor=none;points=[];aspect=fixed;resizable=0;verticalAlign=bottom;labelPosition=center;verticalLabelPosition=top;flipH=1;strokeColor=#0F8B8D;fontColor=#143642;" vertex="1" parent="1">
          <mxGeometry x="402" y="201" width="8" height="8" as="geometry" />
        </mxCell>
        <mxCell id="DrM0CufQLxGyzozMeJKn-381" value="" style="html=1;rounded=0;strokeColor=#0F8B8D;fontColor=#143642;fillColor=#FAE5C7;" vertex="1" parent="1">
          <mxGeometry x="330" y="190" width="30" height="30" as="geometry" />
        </mxCell>
        <mxCell id="DrM0CufQLxGyzozMeJKn-382" value="" style="endArrow=none;html=1;rounded=0;align=center;verticalAlign=top;endFill=0;labelBackgroundColor=none;endSize=2;strokeColor=#A8201A;fontColor=#143642;fillColor=#FAE5C7;" edge="1" source="DrM0CufQLxGyzozMeJKn-381" target="DrM0CufQLxGyzozMeJKn-383" parent="1">
          <mxGeometry relative="1" as="geometry" />
        </mxCell>
        <mxCell id="DrM0CufQLxGyzozMeJKn-383" value="" style="shape=requiredInterface;html=1;fontSize=11;align=center;fillColor=none;points=[];aspect=fixed;resizable=0;verticalAlign=bottom;labelPosition=center;verticalLabelPosition=top;flipH=1;strokeColor=#0F8B8D;fontColor=#143642;" vertex="1" parent="1">
          <mxGeometry x="397" y="199" width="5" height="10" as="geometry" />
        </mxCell>
        <mxCell id="DrM0CufQLxGyzozMeJKn-384" value="80, 443" style="text;html=1;whiteSpace=wrap;strokeColor=none;fillColor=none;align=center;verticalAlign=middle;rounded=0;fontColor=#143642;" vertex="1" parent="1">
          <mxGeometry x="380" y="155" width="60" height="30" as="geometry" />
        </mxCell>
        <mxCell id="DrM0CufQLxGyzozMeJKn-385" value="" style="html=1;rounded=0;strokeColor=#0F8B8D;fontColor=#143642;fillColor=#FAE5C7;" vertex="1" parent="1">
          <mxGeometry x="720" y="175" width="30" height="30" as="geometry" />
        </mxCell>
        <mxCell id="DrM0CufQLxGyzozMeJKn-386" value="" style="endArrow=none;html=1;rounded=0;align=center;verticalAlign=top;endFill=0;labelBackgroundColor=none;endSize=2;strokeColor=#A8201A;fontColor=#143642;fillColor=#FAE5C7;" edge="1" source="DrM0CufQLxGyzozMeJKn-385" target="DrM0CufQLxGyzozMeJKn-387" parent="1">
          <mxGeometry relative="1" as="geometry" />
        </mxCell>
        <mxCell id="DrM0CufQLxGyzozMeJKn-387" value="" style="ellipse;html=1;fontSize=11;align=center;fillColor=none;points=[];aspect=fixed;resizable=0;verticalAlign=bottom;labelPosition=center;verticalLabelPosition=top;flipH=1;strokeColor=#0F8B8D;fontColor=#143642;" vertex="1" parent="1">
          <mxGeometry x="650" y="190" width="8" height="8" as="geometry" />
        </mxCell>
        <mxCell id="DrM0CufQLxGyzozMeJKn-388" value="" style="html=1;rounded=0;strokeColor=#0F8B8D;fontColor=#143642;fillColor=#FAE5C7;" vertex="1" parent="1">
          <mxGeometry x="610" y="175" width="30" height="30" as="geometry" />
        </mxCell>
        <mxCell id="DrM0CufQLxGyzozMeJKn-389" value="" style="endArrow=none;html=1;rounded=0;align=center;verticalAlign=top;endFill=0;labelBackgroundColor=none;endSize=2;strokeColor=#A8201A;fontColor=#143642;fillColor=#FAE5C7;" edge="1" source="DrM0CufQLxGyzozMeJKn-388" target="DrM0CufQLxGyzozMeJKn-390" parent="1">
          <mxGeometry relative="1" as="geometry" />
        </mxCell>
        <mxCell id="DrM0CufQLxGyzozMeJKn-390" value="" style="shape=requiredInterface;html=1;fontSize=11;align=center;fillColor=none;points=[];aspect=fixed;resizable=0;verticalAlign=bottom;labelPosition=center;verticalLabelPosition=top;flipH=1;strokeColor=#0F8B8D;fontColor=#143642;" vertex="1" parent="1">
          <mxGeometry x="665" y="185" width="5" height="10" as="geometry" />
        </mxCell>
        <mxCell id="DrM0CufQLxGyzozMeJKn-392" value="9000" style="text;html=1;whiteSpace=wrap;strokeColor=none;fillColor=none;align=center;verticalAlign=middle;rounded=0;fontColor=#143642;" vertex="1" parent="1">
          <mxGeometry x="690" y="150" width="60" height="30" as="geometry" />
        </mxCell>
        <mxCell id="DrM0CufQLxGyzozMeJKn-393" value="" style="html=1;rounded=0;strokeColor=#0F8B8D;fontColor=#143642;fillColor=#FAE5C7;" vertex="1" parent="1">
          <mxGeometry x="1211" y="75" width="30" height="30" as="geometry" />
        </mxCell>
        <mxCell id="DrM0CufQLxGyzozMeJKn-394" value="" style="endArrow=none;html=1;rounded=0;align=center;verticalAlign=top;endFill=0;labelBackgroundColor=none;endSize=2;strokeColor=#A8201A;fontColor=#143642;fillColor=#FAE5C7;" edge="1" source="DrM0CufQLxGyzozMeJKn-393" target="DrM0CufQLxGyzozMeJKn-395" parent="1">
          <mxGeometry relative="1" as="geometry" />
        </mxCell>
        <mxCell id="DrM0CufQLxGyzozMeJKn-395" value="" style="ellipse;html=1;fontSize=11;align=center;fillColor=none;points=[];aspect=fixed;resizable=0;verticalAlign=bottom;labelPosition=center;verticalLabelPosition=top;flipH=1;strokeColor=#0F8B8D;fontColor=#143642;" vertex="1" parent="1">
          <mxGeometry x="1160" y="86" width="8" height="8" as="geometry" />
        </mxCell>
        <mxCell id="DrM0CufQLxGyzozMeJKn-396" value="" style="html=1;rounded=0;strokeColor=#0F8B8D;fontColor=#143642;fillColor=#FAE5C7;" vertex="1" parent="1">
          <mxGeometry x="1190" y="185" width="30" height="30" as="geometry" />
        </mxCell>
        <mxCell id="DrM0CufQLxGyzozMeJKn-397" value="" style="endArrow=none;html=1;rounded=0;align=center;verticalAlign=top;endFill=0;labelBackgroundColor=none;endSize=2;strokeColor=#A8201A;fontColor=#143642;fillColor=#FAE5C7;" edge="1" source="DrM0CufQLxGyzozMeJKn-396" target="DrM0CufQLxGyzozMeJKn-398" parent="1">
          <mxGeometry relative="1" as="geometry" />
        </mxCell>
        <mxCell id="DrM0CufQLxGyzozMeJKn-398" value="" style="ellipse;html=1;fontSize=11;align=center;fillColor=none;points=[];aspect=fixed;resizable=0;verticalAlign=bottom;labelPosition=center;verticalLabelPosition=top;flipH=1;strokeColor=#0F8B8D;fontColor=#143642;" vertex="1" parent="1">
          <mxGeometry x="1132" y="199" width="8" height="8" as="geometry" />
        </mxCell>
        <mxCell id="DrM0CufQLxGyzozMeJKn-399" value="" style="html=1;rounded=0;strokeColor=#0F8B8D;fontColor=#143642;fillColor=#FAE5C7;" vertex="1" parent="1">
          <mxGeometry x="1040" y="160" width="30" height="30" as="geometry" />
        </mxCell>
        <mxCell id="DrM0CufQLxGyzozMeJKn-400" value="" style="endArrow=none;html=1;rounded=0;align=center;verticalAlign=top;endFill=0;labelBackgroundColor=none;endSize=2;strokeColor=#A8201A;fontColor=#143642;fillColor=#FAE5C7;" edge="1" source="DrM0CufQLxGyzozMeJKn-399" target="DrM0CufQLxGyzozMeJKn-401" parent="1">
          <mxGeometry relative="1" as="geometry" />
        </mxCell>
        <mxCell id="DrM0CufQLxGyzozMeJKn-401" value="" style="shape=requiredInterface;html=1;fontSize=11;align=center;fillColor=none;points=[];aspect=fixed;resizable=0;verticalAlign=bottom;labelPosition=center;verticalLabelPosition=top;flipH=1;strokeColor=#0F8B8D;fontColor=#143642;" vertex="1" parent="1">
          <mxGeometry x="1155" y="85" width="5" height="10" as="geometry" />
        </mxCell>
        <mxCell id="DrM0CufQLxGyzozMeJKn-402" value="" style="html=1;rounded=0;strokeColor=#0F8B8D;fontColor=#143642;fillColor=#FAE5C7;" vertex="1" parent="1">
          <mxGeometry x="1040" y="162.5" width="30" height="30" as="geometry" />
        </mxCell>
        <mxCell id="DrM0CufQLxGyzozMeJKn-403" value="" style="endArrow=none;html=1;rounded=0;align=center;verticalAlign=top;endFill=0;labelBackgroundColor=none;endSize=2;strokeColor=#A8201A;fontColor=#143642;fillColor=#FAE5C7;" edge="1" source="DrM0CufQLxGyzozMeJKn-402" target="DrM0CufQLxGyzozMeJKn-404" parent="1">
          <mxGeometry relative="1" as="geometry" />
        </mxCell>
        <mxCell id="DrM0CufQLxGyzozMeJKn-404" value="" style="shape=requiredInterface;html=1;fontSize=11;align=center;fillColor=none;points=[];aspect=fixed;resizable=0;verticalAlign=bottom;labelPosition=center;verticalLabelPosition=top;flipH=1;strokeColor=#0F8B8D;fontColor=#143642;" vertex="1" parent="1">
          <mxGeometry x="1132" y="195" width="5" height="10" as="geometry" />
        </mxCell>
        <mxCell id="DrM0CufQLxGyzozMeJKn-405" value="5432" style="text;html=1;whiteSpace=wrap;strokeColor=none;fillColor=none;align=center;verticalAlign=middle;rounded=0;fontColor=#143642;" vertex="1" parent="1">
          <mxGeometry x="1155" y="45" width="60" height="30" as="geometry" />
        </mxCell>
        <mxCell id="DrM0CufQLxGyzozMeJKn-407" value="111" style="text;html=1;whiteSpace=wrap;strokeColor=none;fillColor=none;align=center;verticalAlign=middle;rounded=0;fontColor=#143642;" vertex="1" parent="1">
          <mxGeometry x="1134" y="175" width="60" height="30" as="geometry" />
        </mxCell>
      </root>
    </mxGraphModel>
  </diagram>
</mxfile>
